<?xml version="1.0" encoding="UTF-8"?><svg width="104" height="32" viewBox="0 0 104 32" fill="none" xmlns="http://www.w3.org/2000/svg">
<g clip-path="url(#clip0_7225_3535)">
<path d="M52.9586 28.6516C52.7403 28.4572 52.4047 28.4411 52.1852 28.6194C51.4297 29.2668 50.5899 29.6865 49.5141 29.6865C47.4479 29.6865 45.9866 28.0364 45.9866 26.0148V25.9665C45.9866 23.9771 47.4147 22.327 49.3801 22.327C50.5223 22.327 51.3289 22.7479 52.0346 23.3792C52.2694 23.5896 52.6229 23.5563 52.8234 23.347L53.7307 22.3925C53.949 22.166 53.9324 21.8268 53.6963 21.6163C52.6549 20.6619 51.3609 20.0479 49.3801 20.0479C45.8525 20.0479 43.2656 22.7812 43.2656 26.0159V26.0642C43.2656 29.3151 45.8525 31.9679 49.3635 31.9679C51.4131 31.9679 52.7071 31.2722 53.7983 30.2212C54.0166 30.0108 54.0166 29.6554 53.7983 29.445L52.9586 28.6527V28.6516Z" fill="black"/>
<path d="M41.6595 29.1699C41.2563 29.1699 40.9206 29.2999 40.6347 29.5735C40.3489 29.8484 40.2148 30.1727 40.2148 30.5602C40.2148 30.9477 40.3489 31.272 40.6347 31.5468C40.9206 31.8216 41.2729 31.9504 41.6595 31.9504C42.0462 31.9504 42.3985 31.8205 42.6843 31.5468C42.9702 31.272 43.1042 30.9477 43.1042 30.5602C43.1042 30.1727 42.9702 29.8484 42.6843 29.5735C42.4151 29.3148 42.0628 29.1699 41.6595 29.1699Z" fill="black"/>
<path d="M64.5303 26.0633C64.5303 28.0365 63.1532 29.7028 60.953 29.7028C58.7528 29.7028 57.3579 28.0204 57.3579 26.0311V25.9828C57.3579 23.9934 58.735 22.3433 60.902 22.3433C63.069 22.3433 64.5137 24.0095 64.5137 26.015V26.0633H64.5303ZM60.9518 20.0469C57.3401 20.0469 54.6523 22.748 54.6523 26.015V26.0633C54.6523 29.3141 57.3069 31.967 60.9008 31.967C64.4947 31.967 67.2169 29.2658 67.2169 26.015V25.9667C67.2335 22.6997 64.579 20.0469 60.9506 20.0469" fill="black"/>
<path d="M32.5047 29.6709C31.984 29.6709 31.5132 29.5743 31.0933 29.3961C29.7992 28.8303 28.9594 27.5033 28.9594 26.0164V25.9842C28.9594 24.4962 29.7992 23.1704 31.0933 22.6035C31.5132 22.4252 31.9829 22.3286 32.5047 22.3286C34.6208 22.3286 36.1165 23.9776 36.1165 25.9842C36.1165 27.9909 34.622 29.672 32.5047 29.672M38.2491 20.2415H36.687C36.3679 20.2415 36.1153 20.4842 36.1153 20.7912V21.066C35.3597 20.5808 34.4856 20.2576 33.5284 20.1288H33.494C33.1915 20.0806 32.8724 20.0645 32.5534 20.0645H32.5036C28.9084 20.0645 26.2539 22.7323 26.2539 25.9681V26.0981C26.2539 29.3489 28.9084 32.0018 32.5036 32.0018H32.5534C32.8724 32.0018 33.1915 31.9696 33.494 31.9374H33.5284C34.4856 31.8074 35.3763 31.4843 36.1153 30.9991V31.2739C36.1153 31.5809 36.3679 31.8235 36.687 31.8235H38.2491C38.5682 31.8235 38.8208 31.5809 38.8208 31.2739V20.7935C38.8208 20.4853 38.5682 20.2438 38.2491 20.2438" fill="black"/>
<path d="M6.29947 29.7038C4.20004 29.7038 2.70435 28.0214 2.70435 26.0321V25.9838C2.70435 23.9944 4.08143 22.3443 6.24847 22.3443C8.41551 22.3443 9.8602 24.0105 9.8602 26.016V26.0643C9.8768 28.0375 8.48312 29.7038 6.29829 29.7038M12.0106 16.0197H10.4485C10.1294 16.0197 9.8768 16.2623 9.8768 16.5694V21.0656C8.88521 20.4182 7.65995 20.0456 6.29947 20.0456C2.68774 20.0456 0 22.7467 0 26.0137V26.062C0 29.3128 2.65453 31.9657 6.24847 31.9657C7.62555 31.9657 8.852 31.577 9.8602 30.9307V31.2378C9.8602 31.5448 10.1117 31.7874 10.4307 31.7874H11.9928C12.3119 31.7874 12.5645 31.5448 12.5645 31.2378V16.5682C12.5645 16.26 12.3119 16.0186 12.0106 16.0186" fill="black"/>
<path d="M81.3719 20.2412C79.843 20.2412 78.4659 20.8886 77.5253 21.9074C76.5847 20.8886 75.2065 20.2412 73.6787 20.2412C72.7891 20.2412 71.9482 20.4677 71.2092 20.8392V20.7909C71.2092 20.4827 70.9566 20.2412 70.6375 20.2412H69.0588C68.7397 20.2412 68.4883 20.4838 68.4883 20.7909V31.223C68.4883 31.5311 68.7397 31.7726 69.0588 31.7726H70.6375C70.9566 31.7726 71.2092 31.53 71.2092 31.223V25.271C71.2092 23.9612 72.3171 22.8768 73.6787 22.8768C75.0404 22.8768 76.1482 23.944 76.1482 25.271V31.2391C76.1482 31.5461 76.3997 31.7887 76.7188 31.7887H78.3651C78.6842 31.7887 78.9368 31.5461 78.9368 31.2391V25.271C78.9368 23.9612 80.0446 22.8768 81.4063 22.8768C82.768 22.8768 83.8758 23.944 83.8758 25.271V31.2391C83.8758 31.5461 84.1272 31.7887 84.4463 31.7887H86.025C86.3441 31.7887 86.5967 31.5461 86.5967 31.2391V25.271C86.5635 22.4893 84.2281 20.2412 81.3731 20.2412" fill="black"/>
<path d="M24.4055 20.2412H22.8434C22.5244 20.2412 22.2717 20.4838 22.2717 20.7909V26.6302C22.2717 28.1343 21.0287 29.3474 19.4665 29.3474C17.9044 29.3474 16.6614 28.1343 16.6614 26.6302V20.7909C16.6614 20.4827 16.4099 20.2412 16.0909 20.2412H14.5287C14.2085 20.2412 13.957 20.4838 13.957 20.7909V26.6302C13.957 29.574 16.4265 31.967 19.4665 31.967C20.4914 31.967 21.4486 31.6921 22.2717 31.223C22.2717 31.5311 22.5244 31.7726 22.8434 31.7726H24.4055C24.7246 31.7726 24.9761 31.53 24.9761 31.223V20.7909C24.9761 20.4827 24.7246 20.2412 24.4055 20.2412Z" fill="black"/>
<path d="M89.1811 20.8731C89.2665 21.9057 89.4551 22.8694 89.7409 23.7353C90.0742 24.746 90.5428 25.6292 91.1311 26.3605C92.3623 27.8876 94.113 28.7294 96.0606 28.7294C98.7495 28.7294 101.093 27.1655 102.029 24.746C102.282 24.0929 102.422 23.4029 102.444 22.6957C102.467 21.9839 102.371 21.2675 102.158 20.5684C102.138 20.504 102.118 20.4384 102.096 20.374C102.139 20.3326 102.182 20.2901 102.225 20.2475C103.318 19.1436 103.951 17.6924 103.995 16.2136H100.879C100.989 17.7131 99.5217 19.0896 97.5705 19.0896C97.5456 19.0896 97.5219 19.0896 97.497 19.0896C100.761 21.8551 99.1516 25.6729 96.0582 25.6729C92.5485 25.6729 91.5237 20.489 92.8118 15.4834L92.8355 15.3926C92.8355 15.3926 89.9604 16.4816 89.3519 16.6885C89.1289 18.1248 89.0684 19.5449 89.1787 20.8731H89.1811Z" fill="url(#paint0_linear_7225_3535)"/>
<path d="M93.7744 7.85741C93.689 6.82478 93.5004 5.86115 93.2145 4.99526C92.8812 3.98448 92.4127 3.10134 91.8244 2.36999C90.5932 0.841742 88.8425 0 86.8949 0C84.2059 0 81.8622 1.56389 80.9263 3.98333C80.6737 4.63648 80.5337 5.32643 80.5112 6.03364C80.4887 6.74544 80.5847 7.46184 80.797 8.16099C80.8172 8.22538 80.8374 8.29093 80.8599 8.35533C80.816 8.39672 80.7733 8.43927 80.7306 8.48182C79.637 9.58574 79.0048 11.0369 78.9609 12.5157H82.0769C81.9666 11.0162 83.4338 9.63979 85.3849 9.63979C85.4099 9.63979 85.4336 9.63979 85.4585 9.63979C82.1943 6.87423 83.8039 3.05649 86.8972 3.05649C90.407 3.05649 91.4318 8.24033 90.1437 13.2459L90.1199 13.3368C90.1199 13.3368 92.9951 12.2478 93.6036 12.0408C93.8265 10.6046 93.887 9.18442 93.7767 7.85626L93.7744 7.85741Z" fill="url(#paint1_linear_7225_3535)"/>
<path d="M78.9624 12.9114C78.9932 13.6554 79.1557 14.3453 79.4451 14.9617C79.7737 15.6597 80.2529 16.2496 80.8708 16.713C81.8245 17.4283 83.0331 17.7917 84.4636 17.7917C86.2262 17.7917 88.4122 17.2454 91.3442 16.0737L92.8162 15.4849C94.8077 14.6892 96.5525 13.9981 98.1158 13.9981C99.4727 13.9981 100.519 14.32 100.846 15.9437C100.87 16.061 100.883 16.1772 100.888 16.2933H103.997C104.004 16.1358 104.004 15.9782 103.997 15.8207C103.966 15.0767 103.803 14.3867 103.514 13.7704C103.185 13.0724 102.706 12.4825 102.088 12.0191C101.134 11.3038 99.9258 10.9404 98.4954 10.9404C96.7328 10.9404 94.5468 11.4866 91.6147 12.6584L90.1427 13.2472C88.1512 14.0429 86.4064 14.734 84.8431 14.734C83.4862 14.734 82.4401 14.412 82.1127 12.7884C82.089 12.6711 82.0759 12.5549 82.0712 12.4388H78.9624C78.9553 12.5963 78.9553 12.7539 78.9624 12.9114Z" fill="url(#paint2_linear_7225_3535)"/>
</g>
<defs>
<linearGradient id="paint0_linear_7225_3535" x1="100.749" y1="16.6414" x2="91.9268" y2="25.0439" gradientUnits="userSpaceOnUse">
<stop stop-color="#006CB5"/>
<stop offset="1" stop-color="#00B5E0"/>
</linearGradient>
<linearGradient id="paint1_linear_7225_3535" x1="82.3971" y1="12.3364" x2="90.8703" y2="3.59649" gradientUnits="userSpaceOnUse">
<stop stop-color="#CC1D9A"/>
<stop offset="1" stop-color="#DB62A5"/>
</linearGradient>
<linearGradient id="paint2_linear_7225_3535" x1="100.108" y1="16.1438" x2="82.8342" y2="12.3567" gradientUnits="userSpaceOnUse">
<stop stop-color="#006CB5"/>
<stop offset="1" stop-color="#CC1D9A"/>
</linearGradient>
<clipPath id="clip0_7225_3535">
<rect width="104" height="32" fill="white"/>
</clipPath>
</defs>
</svg>
